<svg xmlns="http://www.w3.org/2000/svg" width="32" height="32" viewBox="0 0 32 32" >
  <style>
    path {
      fill: black;
    }
    @media (prefers-color-scheme: dark) {
      path { fill: white; }
    }
  </style>
  <g transform="scale(0.5)" >
    <path d="M38.122 18.858A6.122 6.102 0 0 1 32 24.96a6.122 6.102 0 0 1-6.124-6.1A6.122 6.102 0 0 1 32 12.755a6.122 6.102 0 0 1 6.124 6.1H32Z"/>
    <path fill-rule="evenodd" d="M31.995.1A31.9 31.896 0 0 0 .1 32 31.9 31.896 0 0 0 32 63.892a31.9 31.896 0 0 0 31.9-31.896A31.9 31.896 0 0 0 32 .1v9.495a9.204 9.174 0 0 1 9.206 9.173H32h9.204A9.204 9.174 0 0 1 32 27.943a9.204 9.174 0 0 1-9.204-9.172 9.204 9.174 0 0 1 9.201-9.173ZM32 28.643c10.321 0 18.69 2.851 18.69 19.175h-3.02l3.019.003H32l15.67-.003c-33.56-.005-34.356-.072-34.356-.072-.002-16.267 8.365-19.103 18.685-19.104Z"/>
    <path d="M46.428 45.01H17.572c-.022-10.673 6.433-12.94 14.401-12.94 7.969 0 14.433 2.423 14.455 12.937L32 45.01Z"/>
  </g>
</svg>
